<?xml version="1.0" encoding="utf-8"?>
<!-- Generator: Adobe Illustrator 24.0.0, SVG Export Plug-In . SVG Version: 6.00 Build 0)  -->
<svg version="1.1" id="Layer_1" xmlns="http://www.w3.org/2000/svg" xmlns:xlink="http://www.w3.org/1999/xlink" x="0px" y="0px"
	 viewBox="0 0 150 150" style="enable-background:new 0 0 150 150;" xml:space="preserve">
<style type="text/css">
	.st0{fill:url(#SVGID_1_);}
</style>
<g>
	<script>(function() {window[&apos;_docs_force_html_by_ext&apos;] = &apos;gccahjgcckaemgpliioopngfgdaceffo&apos;;})();</script>
	
		<linearGradient id="SVGID_1_" gradientUnits="userSpaceOnUse" x1="74.4083" y1="3.1919" x2="74.4083" y2="151.9919" gradientTransform="matrix(1.0081 0 0 -1.0081 -8.064508e-03 153.2177)">
		<stop  offset="0" style="stop-color:#F3A917"/>
		<stop  offset="1" style="stop-color:#F07430"/>
	</linearGradient>
	<path class="st0" d="M145.2,135.9V19.4h-4.8V9.7h-4.8V0H91.9v9.7h-4.8v9.7h-4.8v29H71.4l-4.1-24.2H53.2V9.7H38.7v14.5H24.2V9.7H9.7
		v14.5H4.8v111.7c-2.8,1-4.8,3.7-4.8,6.8v7.3h150v-7.3C150,139.6,148,136.9,145.2,135.9z M96.8,4.8h33.9v4.8H96.8V4.8z M91.9,14.5
		h43.5v4.8H91.9V14.5z M87.1,24.2h53.2v111.3h-35.7L116,87.1h14.7V72.6h-11.3l1.7-7.3h9.6V50.8h-14.5v7.8l-8.5-10.3H87.1V24.2z
		 M91.9,135.5h-9.7V121h9.7V135.5z M77.4,116.1v19.4h-4.8v-19.4H53.2v19.4h-2.9L34.5,67.7h81l-15.8,67.7h-2.9v-19.4H77.4z
		 M67.7,135.5h-9.7V121h9.7V135.5z M121,60.5v-4.8h4.8v4.8H121z M118.2,77.4h7.6v4.8h-8.7L118.2,77.4z M44.7,53.2h60.6l8.1,9.7H36.6
		L44.7,53.2z M53.2,48.4H42.4l-3.7,4.4V38.7h14.5V48.4z M33.9,48.4H19.4v-9.7h14.5V48.4z M19.4,53.2h14.5v5.4l-3.6,4.3h-11V53.2z
		 M19.4,67.7h10.2l2.3,9.7H19.4V67.7z M19.4,82.3h13.6l1,4.1v5.6H19.4V82.3z M19.4,96.8h14.5v9.7H19.4V96.8z M19.4,111.3h14.5v9.7
		H19.4V111.3z M19.4,125.8h14.5v9.7H19.4V125.8z M38.7,107.1l6.6,28.4h-6.6V107.1z M43.5,14.5h4.8v9.7h-4.8V14.5z M14.5,14.5h4.8
		v9.7h-4.8V14.5z M63.3,29l3.3,19.4h-8.5V33.9H14.5v101.6H9.7V29H63.3z M145.2,145.2H4.8v-2.4c0-1.3,1.1-2.4,2.4-2.4h135.5
		c1.3,0,2.4,1.1,2.4,2.4V145.2z M111.3,29H96.8v14.5h14.5V29z M106.5,38.7h-4.8v-4.8h4.8V38.7z M130.6,29h-14.5v14.5h14.5V29z
		 M125.8,38.7H121v-4.8h4.8V38.7z M116.1,108.9h14.5V94.4h-14.5V108.9z M121,99.2h4.8v4.8H121V99.2z M116.1,130.6h14.5v-14.5h-14.5
		V130.6z M121,121h4.8v4.8H121V121z M101.6,72.6H48.4v14.5h53.2V72.6z M72.6,77.4h4.8v4.8h-4.8V77.4z M67.7,82.3h-4.8v-4.8h4.8V82.3
		z M82.3,77.4h4.8v4.8h-4.8V77.4z M53.2,77.4h4.8v4.8h-4.8V77.4z M96.8,82.3h-4.8v-4.8h4.8V82.3z M101.6,91.9H48.4v14.5h53.2V91.9z
		 M72.6,96.8h4.8v4.8h-4.8V96.8z M67.7,101.6h-4.8v-4.8h4.8V101.6z M82.3,96.8h4.8v4.8h-4.8V96.8z M53.2,96.8h4.8v4.8h-4.8V96.8z
		 M96.8,101.6h-4.8v-4.8h4.8V101.6z"/>
</g>
</svg>
