<svg xmlns="http://www.w3.org/2000/svg" viewBox="0 0 1000 1000"><defs><style>.cls-1{fill:#fff;}</style></defs><title>logo 2</title><g id="Layer_1" data-name="Layer 1"><path class="cls-1" d="M471.74,500.76v101.6H450.26V500.76Z"/><path class="cls-1" d="M488.35,602.36V589.61l50.7-71.14h-50.8V500.76H566v12.75l-50.75,71.14h50.85v17.71Z"/></g><g id="Layer_2" data-name="Layer 2"><path class="cls-1" d="M803.7,718.29c-2.74,17.08-131.28,22.82-142.92,21.6,25-8.27,70.71-16.77,90.26-34.23a6.38,6.38,0,0,0-2.21-10.78,203.72,203.72,0,0,0-38.07-8.94q-9.21-1.25-18.69-1.65-2.48,2.57-5,5a160.9,160.9,0,0,1-78.8,47.51h0a161.43,161.43,0,0,1-40.2,5.06,159.69,159.69,0,0,1-17.31-.93c-1.31-.13-2.62-.29-3.92-.46-2.61-.34-5.2-.75-7.77-1.21,1.69-.18,3.37-.38,5-.61,1.25-.17,2.49-.35,3.73-.54,27.68-4.26,62.65-24.48,85.89-45a166.58,166.58,0,0,0,44.55-95.86,105.5,105.5,0,0,1-60.81,60.3c-2.93,1.12-5.91,2.11-9,3a104.64,104.64,0,0,1-20.31,3.6,89.43,89.43,0,0,0,57-50.29c.45-.79.9-1.58,1.34-2.37A44.64,44.64,0,0,0,652,587.32v-.07c.28-2.86.42-5.77.42-8.71a89.15,89.15,0,0,0-1.9-18.39l-.12-2.15,22.32-5.5,4.31-1.06,7.93-2,5.85-1.44-2.07-9-9.1.34a5.23,5.23,0,0,1-5-3.19L665,513.33a7,7,0,0,1,6.44-9.72h19.34A4.36,4.36,0,0,1,695,507l9.17,37.81,16.65-4.1c.34-2.88.59-5.66.74-8.37,2.26-38.11-12.39-59.84-25.62-85.82a204.59,204.59,0,0,0-19.71-31.3,203.62,203.62,0,0,1,15,14.42c27.63,29.44,49.42,64,55.78,105.77q1.43,9.38,2,19,.35,6,.35,12c0,31.41-10.38,63-23,89.62,16.76,7.58,35.62,15.49,49.6,27.09,11.3,9.38,16.52,13.08,23.21,21.42C802.76,709.09,804.63,712.52,803.7,718.29Z"/></g><g id="Layer_3" data-name="Layer 3"><path class="cls-1" d="M536.91,215.84c16.82-4.06,71.63,112.35,75,123.56-17.26-19.89-42.71-58.79-66.36-70.1a6.37,6.37,0,0,0-9.09,6.19,204.07,204.07,0,0,0,6.41,38.58c1.6,6,3.49,12,5.68,17.88,2.21.86,4.41,1.77,6.59,2.7a160.91,160.91,0,0,1,74.2,54.42l0,0a161.58,161.58,0,0,1,20.15,35.15,159.81,159.81,0,0,1,5.81,16.33c.39,1.26.74,2.53,1.09,3.79q1,3.81,1.87,7.64c-.81-1.49-1.65-3-2.5-4.42-.64-1.09-1.28-2.16-1.94-3.23-14.59-23.9-46.72-48.39-74.6-61.93a166.55,166.55,0,0,0-105.62-4.19q5.28-.12,10.52.28a106.05,106.05,0,0,1,68.55,32.61q3.24,3.41,6.18,7.13A104.94,104.94,0,0,1,570,435.63a89.45,89.45,0,0,0-68.39-33.28l-2.7-.32a44.66,44.66,0,0,0-24.45,4.22l-.07,0c-2.74.84-5.48,1.84-8.2,3A89,89,0,0,0,450,418.09L448,419l-13.68-18.47L431.72,397l-4.85-6.57-3.58-4.84L415.74,391l3.82,8.27a5.23,5.23,0,0,1-1,5.85l-17.36,17.71a7,7,0,0,1-11.44-2.2l-7.45-17.85a4.37,4.37,0,0,1,1.45-5.21l31.35-23-10.19-13.78c-2.79.79-5.45,1.63-8,2.54-36,12.6-50.45,34.49-69.33,56.7a205.13,205.13,0,0,0-21.29,30.25,203,203,0,0,1,7.54-19.36c16.53-36.84,40-70.26,76.12-92.22q8.1-4.94,16.79-9.16c3.57-1.75,7.23-3.4,10.95-5,29-12.1,62.16-14.71,91.58-13.27.53-18.38.57-38.83,5.89-56.2,4.3-14,5.7-20.29,10.82-29.67C528.78,220.25,531.23,217.2,536.91,215.84Z"/></g><g id="Layer_4" data-name="Layer 4"><path class="cls-1" d="M197.46,703c-12.19-12.27,58.85-119.55,66.69-128.24-8,25.08-28.08,67-25.47,93.11a6.37,6.37,0,0,0,10,4.56A203.71,203.71,0,0,0,278.33,647q6.44-6.72,12.34-14.14-.62-3.51-1.11-7a160.86,160.86,0,0,1,8-91.67.05.05,0,0,1,0,0,161.65,161.65,0,0,1,19.58-35.48,158.1,158.1,0,0,1,10.94-13.44c.88-1,1.78-1.95,2.68-2.9,1.81-1.91,3.67-3.76,5.55-5.57-.85,1.48-1.67,2.95-2.47,4.44-.6,1.11-1.18,2.21-1.76,3.33-12.85,24.88-17.1,65.05-14.2,95.91a166.58,166.58,0,0,0,51.25,92.45q-2.85-4.45-5.23-9.14a106,106,0,0,1-7.71-75.51c.82-3,1.78-6,2.89-9a104.39,104.39,0,0,1,9-18.54,89.4,89.4,0,0,0,7.07,75.73c.37.83.74,1.66,1.12,2.48a44.72,44.72,0,0,0,16.3,18.7l.06,0q3.22,2.86,6.79,5.47a89.32,89.32,0,0,0,16,9.29l1.81,1.17-8.7,21.28-1.68,4.11-3.09,7.55L401.52,712l8.52,3.65,5.09-7.56a5.24,5.24,0,0,1,5.53-2.17l24.14,5.64a7,7,0,0,1,4.06,10.93l-11.39,15.63a4.37,4.37,0,0,1-5.2,1.47l-36-14.85-6.49,15.87c2.13,2,4.23,3.81,6.33,5.53,29.48,24.26,55.67,25.21,84.46,29.81a204.07,204.07,0,0,0,36.9,2.5,202.69,202.69,0,0,1-20.46,3.6c-40.07,5-80.82,2.27-118.34-17.18q-8.41-4.38-16.55-9.59-5-3.22-9.91-6.79C326.86,730,307.41,703,293.38,677.13c-16,9.09-33.5,19.67-51.1,24.14-14.24,3.62-20.3,5.66-31,6.15C205.45,707.68,201.58,707.18,197.46,703Z"/></g></svg>