<svg width="336" height="149" viewBox="0 0 336 149" fill="none" xmlns="http://www.w3.org/2000/svg">
<g clip-path="url(#clip0)">
<path opacity="0.64" fill-rule="evenodd" clip-rule="evenodd" d="M386.246 61.6876C363.322 67.2648 337.474 57.4956 324.448 38.331C310.789 18.2361 283.179 8.60946 259.742 15.7705L229.52 99.9178C252.782 93.3537 279.735 103.041 293.16 122.791L293.697 123.582C306.723 142.747 332.571 152.516 355.495 146.939L386.246 61.6876Z" fill="#D2D545"/>
<path opacity="0.86" fill-rule="evenodd" clip-rule="evenodd" d="M109.5 -192C39.636 -192 -17 -135.14 -17 -65C-17 5.14016 39.636 62 109.5 62C179.364 62 236 5.14016 236 -65C236 -135.14 179.364 -192 109.5 -192Z" fill="#0A7AFF"/>
<path fill-rule="evenodd" clip-rule="evenodd" d="M362.171 -216.91L82.1107 -61.0557C60.0145 -48.7591 52.045 -20.7835 64.31 1.4305L64.3106 1.43168C76.5749 23.6445 104.43 31.6852 126.526 19.3886L126.527 19.3879C148.622 7.09205 176.478 15.1309 188.743 37.3449C201.009 59.5601 228.863 67.5995 250.959 55.303C273.055 43.0064 300.91 51.0459 313.175 73.2599C325.44 95.4739 353.294 103.513 375.392 91.2162L375.393 91.2155C397.488 78.9196 425.344 86.9596 437.609 109.174C449.874 131.388 477.729 139.428 499.825 127.132C521.921 114.835 529.89 86.8584 517.625 64.6443L362.171 -216.91Z" fill="#001623"/>
</g>
<defs>
<clipPath id="clip0">
<path d="M0 0H330C333.314 0 336 2.68629 336 6V149H0V0Z" fill="white"/>
</clipPath>
</defs>
</svg>
